<svg id="filled_outline" data-name="filled outline" xmlns="http://www.w3.org/2000/svg" viewBox="0 0 76.67 100" width="100px" height="100px"><defs><style>.cls-1{fill:#548aff;}.cls-2{fill:#7dafff;}.cls-3{fill:#f78e00;}</style></defs><title>base64_1</title><path class="cls-1" d="M75,36.67V75.57a6.68,6.68,0,0,1-2,4.71L57,96.38a6.68,6.68,0,0,1-4.71,2h-44a6.58,6.58,0,0,1-6.61-6.56s0-.09,0-.13v-55Z"/><path class="cls-2" d="M74.4,78.33a6.63,6.63,0,0,1-1.35,2L57,96.38a6.63,6.63,0,0,1-2,1.35V85a6.67,6.67,0,0,1,6.67-6.67Z"/><path class="cls-3" d="M18.33,15H25V26.67H18.33Z"/><path class="cls-3" d="M38.33,36.67V25H31.67V36.67"/><path class="cls-3" d="M45,8.33h6.67V20H45Z"/><path class="cls-3" d="M58.33,30H65v6.67H58.33Z"/><path d="M2.36,97.53A8.23,8.23,0,0,0,8.27,100h44a8.28,8.28,0,0,0,5.89-2.44L74.23,81.46a8.28,8.28,0,0,0,2.44-5.89V36.67A1.67,1.67,0,0,0,75,35H73.33V30H70v5H66.67V30A1.67,1.67,0,0,0,65,28.33H58.33A1.67,1.67,0,0,0,56.67,30h0v5H53.33V25H50V35H46.67V25H43.33V35H40V25a1.67,1.67,0,0,0-1.67-1.67H31.67A1.67,1.67,0,0,0,30,25h0V35H26.67V31.67H23.33V35H20V31.67H16.67V35H13.33V23.33H10V35H6.67V30H3.33v5H1.67A1.67,1.67,0,0,0,0,36.67v55A8.17,8.17,0,0,0,2.36,97.53ZM60,31.67h3.33V35H60Zm-26.67-5h3.33V35H33.33Zm40,11.67V75.57a5,5,0,0,1-1.46,3.54l-15.2,15.2V85a5,5,0,0,1,5-5h5V76.67h-5A8.34,8.34,0,0,0,53.33,85V96.55a5,5,0,0,1-1.09.12h-44a4.92,4.92,0,0,1-3.54-1.48,4.86,4.86,0,0,1-1.4-3.51V38.33Z"/><path d="M16.67,26.67a1.67,1.67,0,0,0,1.67,1.67H25a1.67,1.67,0,0,0,1.67-1.67h0V15A1.67,1.67,0,0,0,25,13.33H18.33A1.67,1.67,0,0,0,16.67,15h0Zm3.33-10h3.33V25H20Z"/><path d="M10,0h3.33V20H10Z"/><path d="M3.33,0H6.67V6.67H3.33Z"/><path d="M3.33,10H6.67V26.67H3.33Z"/><path d="M70,0h3.33V6.67H70Z"/><path d="M70,10h3.33V26.67H70Z"/><path d="M16.67,0H20V10H16.67Z"/><path d="M23.33,0h3.33V3.33H23.33Z"/><path d="M23.33,6.67h3.33V10H23.33Z"/><path d="M30,11.67h3.33V20H30Z"/><path d="M36.67,0H40V11.67H36.67Z"/><path d="M36.67,15H40v5H36.67Z"/><path d="M30,0h3.33V8.33H30Z"/><path d="M43.33,20A1.67,1.67,0,0,0,45,21.67h6.67A1.67,1.67,0,0,0,53.33,20h0V8.33a1.67,1.67,0,0,0-1.67-1.67H45a1.67,1.67,0,0,0-1.67,1.67h0Zm3.33-10H50v8.33H46.67Z"/><path d="M43.33,0h3.33V3.33H43.33Z"/><path d="M50,0h3.33V3.33H50Z"/><path d="M56.67,10H60V25H56.67Z"/><path d="M63.33,0h3.33V16.67H63.33Z"/><path d="M63.33,20h3.33v5H63.33Z"/><path d="M56.67,0H60V6.67H56.67Z"/><path d="M20,46.67h5V50H20Z"/><path d="M28.33,46.67H51.67V50H28.33Z"/><path d="M55,46.67H65V50H55Z"/><path d="M11.67,56.67h10V60h-10Z"/><path d="M25,56.67H51.67V60H25Z"/><path d="M11.67,76.67H30V80H11.67Z"/><path d="M33.33,76.67H50V80H33.33Z"/><path d="M11.67,86.67h5V90h-5Z"/><path d="M43.33,86.67H50V90H43.33Z"/><path d="M20,86.67H40V90H20Z"/><path d="M55,56.67H65V60H55Z"/><path d="M11.67,66.67H15V70H11.67Z"/><path d="M18.33,66.67H41.67V70H18.33Z"/><path d="M45,66.67H65V70H45Z"/></svg>