<svg id="Capa_1" data-name="Capa 1" xmlns="http://www.w3.org/2000/svg" viewBox="0 0 98.45 100" width="100px" height="100px"><defs><style>.cls-1{fill:#7f67c9;}.cls-2{fill:#967adc;}.cls-3{fill:#ac92ec;}</style></defs><title>blockchain</title><polygon class="cls-1" points="96.89 64.06 96.89 92.19 90.64 98.44 90.64 70.31 96.89 64.06"/><polygon class="cls-2" points="79.7 64.06 96.89 64.06 90.64 70.31 62.51 70.31 68.76 64.06 79.7 64.06"/><polygon class="cls-3" points="90.64 70.31 90.64 98.44 62.51 98.44 62.51 81.25 62.51 70.31 90.64 70.31"/><polygon class="cls-1" points="96.89 1.56 96.89 29.69 90.64 35.94 90.64 7.81 96.89 1.56"/><polygon class="cls-2" points="96.89 1.56 90.64 7.81 62.51 7.81 68.76 1.56 96.89 1.56"/><polygon class="cls-3" points="90.64 7.81 90.64 35.94 79.7 35.94 62.51 35.94 62.51 18.74 62.51 7.81 90.64 7.81"/><polygon class="cls-2" points="35.94 1.56 29.69 7.81 1.56 7.81 7.81 1.56 35.94 1.56"/><polygon class="cls-1" points="35.94 18.74 35.94 29.69 29.69 35.94 29.69 7.81 35.94 1.56 35.94 18.74"/><polygon class="cls-2" points="18.75 64.06 35.94 64.06 29.69 70.31 1.56 70.31 7.81 64.06 18.75 64.06"/><polygon class="cls-1" points="35.94 81.25 35.94 92.19 29.69 98.44 29.69 70.31 35.94 64.06 35.94 81.25"/><rect class="cls-3" x="1.56" y="70.31" width="28.13" height="28.13"/><polygon class="cls-3" points="29.69 7.81 29.69 35.94 18.75 35.94 1.56 35.94 1.56 7.81 29.69 7.81"/><path d="M29.69,37.51H1.56A1.56,1.56,0,0,1,0,35.94V7.81A1.56,1.56,0,0,1,1.56,6.25H29.69a1.56,1.56,0,0,1,1.56,1.56V35.94A1.56,1.56,0,0,1,29.69,37.51ZM3.13,34.38h25v-25h-25Z"/><path d="M35.94,31.26a1.56,1.56,0,0,1-1.56-1.56V3.13H7.81A1.56,1.56,0,0,1,7.81,0H35.94a1.56,1.56,0,0,1,1.56,1.56V29.69A1.56,1.56,0,0,1,35.94,31.26Z"/><path d="M1.56,9.38A1.56,1.56,0,0,1,.46,6.71L6.71.46A1.56,1.56,0,0,1,8.92,2.67L2.67,8.92A1.56,1.56,0,0,1,1.56,9.38Z"/><path d="M29.69,37.51a1.56,1.56,0,0,1-1.1-2.67l6.25-6.25A1.56,1.56,0,0,1,37,30.8L30.8,37A1.56,1.56,0,0,1,29.69,37.51Z"/><path d="M29.69,9.38a1.56,1.56,0,0,1-1.1-2.67L34.84.46A1.56,1.56,0,0,1,37,2.67L30.8,8.92A1.56,1.56,0,0,1,29.69,9.38Z"/><path d="M29.69,100H1.56A1.56,1.56,0,0,1,0,98.44V70.31a1.56,1.56,0,0,1,1.56-1.56H29.69a1.56,1.56,0,0,1,1.56,1.56V98.44A1.56,1.56,0,0,1,29.69,100ZM3.13,96.87h25v-25h-25Z"/><path d="M35.94,93.75a1.56,1.56,0,0,1-1.56-1.56V65.62H7.81a1.56,1.56,0,1,1,0-3.13H35.94a1.56,1.56,0,0,1,1.56,1.56V92.19A1.56,1.56,0,0,1,35.94,93.75Z"/><path d="M1.56,71.87A1.56,1.56,0,0,1,.46,69.2L6.71,63a1.56,1.56,0,1,1,2.21,2.21L2.67,71.41A1.56,1.56,0,0,1,1.56,71.87Z"/><path d="M29.69,100a1.56,1.56,0,0,1-1.1-2.67l6.25-6.25A1.56,1.56,0,1,1,37,93.29L30.8,99.54A1.56,1.56,0,0,1,29.69,100Z"/><path d="M29.69,71.87a1.56,1.56,0,0,1-1.1-2.67L34.84,63A1.56,1.56,0,1,1,37,65.16L30.8,71.41A1.56,1.56,0,0,1,29.69,71.87Z"/><path d="M18.75,68.74a1.56,1.56,0,0,1-1.56-1.56V56.24a1.56,1.56,0,0,1,3.13,0V67.18A1.56,1.56,0,0,1,18.75,68.74Z"/><path d="M18.75,60.93a6.26,6.26,0,0,1-6.25-6.25V48.43a6.25,6.25,0,1,1,12.5,0v6.25A6.26,6.26,0,0,1,18.75,60.93Zm0-15.63a3.13,3.13,0,0,0-3.13,3.13v6.25a3.13,3.13,0,0,0,6.25,0V48.43A3.13,3.13,0,0,0,18.75,45.3Z"/><path d="M18.75,48.43a1.56,1.56,0,0,1-1.56-1.56V35.93a1.56,1.56,0,1,1,3.13,0V46.87A1.56,1.56,0,0,1,18.75,48.43Z"/><path d="M43.75,82.81H32.81a1.56,1.56,0,1,1,0-3.13H43.75a1.56,1.56,0,0,1,0,3.13Z"/><path d="M51.56,87.5H45.31a6.25,6.25,0,1,1,0-12.5h6.25a6.25,6.25,0,0,1,0,12.5Zm-6.25-9.38a3.13,3.13,0,0,0,0,6.25h6.25a3.13,3.13,0,0,0,0-6.25Z"/><path d="M62.5,82.81H53.13a1.56,1.56,0,1,1,0-3.13H62.5a1.56,1.56,0,1,1,0,3.13Z"/><path d="M43.75,20.3H32.81a1.56,1.56,0,0,1,0-3.13H43.75a1.56,1.56,0,1,1,0,3.13Z"/><path d="M51.56,25H45.31a6.25,6.25,0,1,1,0-12.5h6.25a6.25,6.25,0,0,1,0,12.5Zm-6.25-9.38a3.13,3.13,0,0,0,0,6.25h6.25a3.13,3.13,0,1,0,0-6.25Z"/><path d="M62.5,20.3H53.13a1.56,1.56,0,1,1,0-3.13H62.5a1.56,1.56,0,0,1,0,3.13Z"/><path d="M90.63,37.51H62.5a1.56,1.56,0,0,1-1.56-1.56V7.81A1.56,1.56,0,0,1,62.5,6.25H90.63A1.56,1.56,0,0,1,92.2,7.81V35.94A1.56,1.56,0,0,1,90.63,37.51ZM64.07,34.38h25v-25h-25Z"/><path d="M96.88,31.26a1.56,1.56,0,0,1-1.56-1.56V3.13H68.75a1.56,1.56,0,0,1,0-3.13H96.88a1.56,1.56,0,0,1,1.56,1.56V29.69A1.56,1.56,0,0,1,96.88,31.26Z"/><path d="M62.5,9.38a1.56,1.56,0,0,1-1.1-2.67L67.65.46a1.56,1.56,0,1,1,2.21,2.21L63.61,8.92A1.56,1.56,0,0,1,62.5,9.38Z"/><path d="M90.63,37.51a1.56,1.56,0,0,1-1.1-2.67l6.25-6.25A1.56,1.56,0,0,1,98,30.8L91.74,37A1.56,1.56,0,0,1,90.63,37.51Z"/><path d="M90.63,9.38a1.56,1.56,0,0,1-1.1-2.67L95.78.46A1.56,1.56,0,0,1,98,2.67L91.74,8.92A1.56,1.56,0,0,1,90.63,9.38Z"/><path d="M90.63,100H62.5a1.56,1.56,0,0,1-1.56-1.56V70.31a1.56,1.56,0,0,1,1.56-1.56H90.63a1.56,1.56,0,0,1,1.56,1.56V98.44A1.56,1.56,0,0,1,90.63,100ZM64.07,96.87h25v-25h-25Z"/><path d="M96.88,93.75a1.56,1.56,0,0,1-1.56-1.56V65.62H68.75a1.56,1.56,0,0,1,0-3.13H96.88a1.56,1.56,0,0,1,1.56,1.56V92.19A1.56,1.56,0,0,1,96.88,93.75Z"/><path d="M62.5,71.87a1.56,1.56,0,0,1-1.1-2.67L67.65,63a1.56,1.56,0,1,1,2.21,2.21l-6.25,6.25A1.56,1.56,0,0,1,62.5,71.87Z"/><path d="M90.63,100a1.56,1.56,0,0,1-1.1-2.67l6.25-6.25A1.56,1.56,0,1,1,98,93.29l-6.25,6.25A1.56,1.56,0,0,1,90.63,100Z"/><path d="M90.63,71.87a1.56,1.56,0,0,1-1.1-2.67L95.78,63A1.56,1.56,0,1,1,98,65.16l-6.25,6.25A1.56,1.56,0,0,1,90.63,71.87Z"/><path d="M79.69,68.74a1.56,1.56,0,0,1-1.56-1.56V56.24a1.56,1.56,0,1,1,3.13,0V67.18A1.56,1.56,0,0,1,79.69,68.74Z"/><path d="M79.69,60.93a6.26,6.26,0,0,1-6.25-6.25V48.43a6.25,6.25,0,0,1,12.5,0v6.25A6.26,6.26,0,0,1,79.69,60.93Zm0-15.63a3.13,3.13,0,0,0-3.13,3.13v6.25a3.13,3.13,0,0,0,6.25,0V48.43A3.13,3.13,0,0,0,79.69,45.3Z"/><path d="M79.69,48.43a1.56,1.56,0,0,1-1.56-1.56V35.93a1.56,1.56,0,1,1,3.13,0V46.87A1.56,1.56,0,0,1,79.69,48.43Z"/></svg>