<svg id="Capa_1" data-name="Capa 1" xmlns="http://www.w3.org/2000/svg" viewBox="0 0 85.24 100" width="100px" height="100px"><defs><style>.cls-1{fill:#ad6327;}.cls-2{fill:#d3843d;}.cls-3{fill:#ffd782;}</style></defs><title>cookies</title><path class="cls-1" d="M7.19,47.68a8.66,8.66,0,0,1-5.26,16A32.57,32.57,0,0,0,2,68.5,6.93,6.93,0,0,1,6,81.59,32.9,32.9,0,1,0,7.19,47.68Z"/><path class="cls-2" d="M53.76,84.57a6.93,6.93,0,1,1-2.54-9.46A6.93,6.93,0,0,1,53.76,84.57Zm-9-5.19a3.46,3.46,0,1,0,4.73-1.27A3.46,3.46,0,0,0,44.77,79.38Z"/><path class="cls-2" d="M31.44,81.68a8.66,8.66,0,1,1-3.17-11.83A8.66,8.66,0,0,1,31.44,81.68Zm-12-6.93a5.19,5.19,0,1,0,7.1-1.9A5.19,5.19,0,0,0,19.45,74.76Z"/><circle class="cls-2" cx="50.55" cy="34.73" r="32.9" transform="translate(-4.8 61.14) rotate(-60)"/><path class="cls-3" d="M46.52,24.41a8.66,8.66,0,1,1-3.17-11.83A8.66,8.66,0,0,1,46.52,24.41Zm-12-6.93a5.19,5.19,0,1,0,7.1-1.9A5.19,5.19,0,0,0,34.52,17.48Z"/><path class="cls-3" d="M75.47,33.13A8.66,8.66,0,1,1,72.3,21.3,8.66,8.66,0,0,1,75.47,33.13Zm-12-6.93a5.19,5.19,0,1,0,7.1-1.9A5.19,5.19,0,0,0,63.47,26.2Z"/><path class="cls-3" d="M53.89,56.65a6.93,6.93,0,1,1-2.54-9.46A6.93,6.93,0,0,1,53.89,56.65Zm-9-5.19a3.46,3.46,0,1,0,4.73-1.27A3.46,3.46,0,0,0,44.89,51.46Z"/><rect class="cls-3" x="28.27" y="39.25" width="7.34" height="3.46" transform="translate(-9.52 9.66) rotate(-15)"/><rect class="cls-3" x="65.84" y="45.42" width="3.46" height="6.25" transform="translate(-14.52 34.98) rotate(-26.31)"/><path d="M43.35,12.58a8.66,8.66,0,1,0,3.17,11.83A8.66,8.66,0,0,0,43.35,12.58Zm-6.93,12a5.19,5.19,0,1,1,7.1-1.9A5.19,5.19,0,0,1,36.42,24.58Z"/><path d="M60.48,24.47A8.66,8.66,0,1,0,72.3,21.3,8.66,8.66,0,0,0,60.48,24.47Zm12,6.93a5.19,5.19,0,1,1-1.9-7.1A5.19,5.19,0,0,1,72.47,31.39Z"/><path d="M41.89,49.73a6.93,6.93,0,1,0,9.46-2.54A6.93,6.93,0,0,0,41.89,49.73Zm9,5.19a3.46,3.46,0,1,1-1.27-4.73A3.46,3.46,0,0,1,50.89,54.92Z"/><path d="M41.77,77.65a6.93,6.93,0,1,0,9.46-2.54A6.93,6.93,0,0,0,41.77,77.65Zm9,5.19a3.46,3.46,0,1,1-1.27-4.73A3.46,3.46,0,0,1,50.77,82.84Z"/><path d="M28.27,69.86a8.66,8.66,0,1,0,3.17,11.83A8.66,8.66,0,0,0,28.27,69.86Zm.17,10.09a5.19,5.19,0,1,1-1.9-7.1A5.19,5.19,0,0,1,28.44,79.95Z"/><rect x="28.27" y="39.25" width="7.34" height="3.46" transform="translate(-9.52 9.66) rotate(-15)"/><rect x="65.41" y="45.73" width="3.45" height="6.22" transform="translate(-14.73 35.04) rotate(-26.47)"/><path d="M20.56,17.42A34.35,34.35,0,0,0,16,36.53,34.39,34.39,0,0,0,5.73,46.74l-1,1.53,1.5.87A6.93,6.93,0,0,1,2,62L.16,61.76l-.1,1.8a35.67,35.67,0,0,0,.07,5L.3,70.46l1.85-.29a5.06,5.06,0,0,1,3.58.66A5.19,5.19,0,0,1,5.31,80l-1.69.78.9,1.62A34.63,34.63,0,0,0,69.25,63.82a34.63,34.63,0,1,0-48.69-46.4ZM61.73,81.17a31.17,31.17,0,0,1-53.33,1,8.66,8.66,0,0,0-4.79-15.5l0-1.21a10.39,10.39,0,0,0,6-18.2,31.13,31.13,0,0,1,6.85-6.84,34.63,34.63,0,0,0,49.5,25.32A31.05,31.05,0,0,1,61.73,81.17ZM77.54,50.32a31.17,31.17,0,0,1-58-12.88h0a31.17,31.17,0,1,1,58,12.88Z"/></svg>