<?xml version="1.0" encoding="utf-8"?>
<!-- Generator: Adobe Illustrator 20.1.0, SVG Export Plug-In . SVG Version: 6.00 Build 0)  -->
<svg version="1.1" id="Слой_1" xmlns="http://www.w3.org/2000/svg" xmlns:xlink="http://www.w3.org/1999/xlink" x="0px" y="0px"
	 viewBox="0 0 100 100" width="100px" height="100px" style="enable-background:new 0 0 100 100;" xml:space="preserve">
<style type="text/css">
	.st0{fill:#FEFEFE;}
	.st1{fill:#FA015B;}
	.st2{fill:#00F1E5;}
	.st3{fill:#D53AFE;}
	.st4{fill:#00B8F0;}
	.st5{fill:#00F5EA;}
	.st6{fill:#FC015D;}
</style>
<g>
	<path d="M59.1,79c0,5.8,0,11.6,0,17.3c0,3.1-0.6,3.6-3.7,3.6c-3.7,0-7.5,0-11.2,0c-2.8,0-3.5-0.8-3.5-3.5c0-5.8,0-11.7,0-18
		c-2,2.7-3.7,5-5.4,7.4c-2,2.7-3.9,5.3-5.9,8c-1,1.4-2.2,1.6-3.6,0.5c-3.5-2.6-7-5.1-10.6-7.6c-1.5-1.1-1.6-2.5-0.3-4.3
		c3.3-4.6,6.7-9.2,10-13.8c0.1-0.2,0.2-0.5,0.5-1c-1.8,0.6-3.3,1-4.8,1.5c-4.2,1.4-8.5,2.8-12.7,4.1c-2.3,0.7-3,0.3-3.8-2
		C2.8,67.6,1.7,64,0.5,60.5c-1.1-3.2-0.6-4,2.6-5c5.5-1.7,11-3.6,16.8-5.5C13.8,48,8,46,2.1,44.2c-1.6-0.5-2.4-1.4-2-3
		c1.1-4.7,2.7-9.2,4.4-13.6c0.6-1.5,2.1-1.3,3.4-0.8c5,1.6,10,3.2,15,4.9c0.6,0.2,1.3,0.6,1.7,0.1c0.4-0.6-0.3-1.1-0.6-1.6
		c-3.1-4.3-6.2-8.5-9.3-12.8c-1.5-2.1-1.4-2.6,0.7-4.1c3.4-2.5,6.8-5,10.2-7.5c1.8-1.3,2.8-1.1,4.4,1.1c3.5,4.8,7,9.6,10.7,14.7
		c0-6.2,0-11.9,0-17.7c0-3.6,0.2-3.8,3.8-3.8c3.7,0,7.5,0,11.2,0C58.7,0,59,0.3,59,3.4c0,6,0,11.9,0,18.4c3-4.2,5.8-8,8.6-11.8
		c1-1.3,1.9-2.7,2.9-3.9c1-1.3,2.2-1.5,3.6-0.5c3.5,2.6,7,5.1,10.5,7.7c1.9,1.4,1.9,2.3,0.5,4.2c-3.2,4.3-6.3,8.7-9.4,13
		c-0.4,0.6-0.9,1.2-1.3,1.7c0.9,0.3,1.6-0.2,2.3-0.5c5.1-1.6,10.1-3.3,15.2-4.9c2.2-0.7,3.1-0.3,3.9,1.9c1.5,4,2.5,8.1,4.1,12
		c0.7,1.8-0.1,2.8-2,3.4C91.9,46,86,48,79.8,50c4.1,1.3,7.9,2.6,11.7,3.8c2.1,0.7,4.1,1.3,6.2,1.9c2,0.6,2.8,1.6,2.1,3.4
		c-1.5,4-2.6,8.2-4.1,12.2c-0.8,2.3-1.5,2.5-3.9,1.8c-5.3-1.6-10.5-3.3-15.8-5c-0.3-0.1-0.6-0.1-1.1-0.2c0,1.2,0.8,1.8,1.3,2.5
		c2.9,4,5.8,8,8.7,12c1.7,2.3,1.4,3-1,4.6c-3.2,2.2-6.4,4.6-9.5,6.9c-1.9,1.4-3,1.2-4.4-0.7c-3.1-4.3-6.3-8.7-9.4-13
		C60.3,79.8,60,79.1,59.1,79z"/>
	<path d="M27.5,50.2c0-0.1,0-0.3,0-0.4c0.3-0.9,1.1-1,1.8-1.2c1.9-0.7,3.7-1.2,5.6-1.9c2.4-0.8,2.4-0.9,1-2.8
		c-1.3-1.9-2.7-3.7-4.1-5.6c-0.4-0.6-1.2-1.2-0.5-2.1c3.3,0.3,6.3,1.8,9.5,2.6c1,0.4,1.3,0,1.3-1c0-2.3,0-4.6,0-6.8
		c0-0.8-0.1-1.6,0.2-2.4c1-1.2,1.4,0,1.8,0.5c1.6,1.9,3,4,4.5,6c1.3,1.8,1.3,1.8,2.6,0.1c1.5-2,2.9-4.1,4.4-6
		c0.4-0.5,0.6-1.5,1.6-0.7c0.6,2.7,0.2,5.5,0.3,8.3c0.1,2.4,0.2,2.5,2.4,1.7c2.1-0.7,4.3-1.3,6.4-2c0.7-0.2,1.4-0.6,2.1-0.1
		c0.4,1-0.4,1.7-0.9,2.3c-1.4,1.9-2.7,3.9-4.2,5.7c-0.8,1.1-0.6,1.6,0.7,2c2.4,0.7,4.8,1.6,7.2,2.3c0.7,0.2,1.7,0.3,1.8,1.4
		c-1.3,1.2-3,1.4-4.6,1.9c-1.2,0.4-2.5,0.7-3.7,1.1c-2.3,0.8-2.3,0.8-0.8,2.8c1.3,1.7,2.5,3.4,3.7,5.1c0.5,0.7,1.1,1.4,0.3,2.3
		c-1.2,0.4-2.2-0.3-3.3-0.6c-1.7-0.5-3.5-1.1-5.2-1.6c-1.3-0.4-1.8,0-1.7,1.3c0,2.1,0,4.2,0,6.3c0,0.9,0.1,1.8-0.2,2.6
		c-0.9,1.1-1.3,0-1.6-0.5c-1.6-2.2-3.3-4.3-4.8-6.5c-0.7-1.1-1.2-1-1.9,0c-1.5,2.1-3.1,4.3-4.7,6.4c-0.4,0.6-0.9,1.8-2,0.6
		c-0.4-2.8-0.1-5.7-0.2-8.5c0-0.7,0.4-1.6-0.7-1.9c-2.6,0.5-5,1.6-7.5,2.2c-0.7,0.2-1.4,0.5-2.1,0.2c-0.8-0.9,0-1.6,0.4-2.3
		c1.4-1.9,2.7-3.9,4.2-5.7c0.9-1.1,0.6-1.6-0.6-2c-2.1-0.6-4.1-1.3-6.2-1.9C28.8,51.3,27.7,51.4,27.5,50.2z"/>
	<path class="st0" d="M57,28.2c-2.3,3.1-4.7,6.3-7.1,9.4c-2.4-3.2-4.8-6.4-7.1-9.5c-0.3-0.1-0.3-0.3-0.2-0.6
		c0.4-1.4,0.2-2.8,0.2-4.2c0-6.5,0-13-0.1-19.5c0-1.2,0.2-1.8,1.6-1.7c3.7,0.1,7.5,0.1,11.2,0C56.8,2,57,2.4,57,3.6
		c-0.1,7.3,0,14.5,0,21.8c0,0.7,0.1,1.5,0.2,2.2C57.2,27.8,57.1,28,57,28.2z"/>
	<path class="st0" d="M42.7,71.9c2.3-3.1,4.7-6.3,7.1-9.5c2.4,3.2,4.7,6.3,7.1,9.5c0.1,0.1,0.1,0.3,0.1,0.5c0,7.3-0.1,14.7-0.1,22
		c0,3.6,0,3.6-3.5,3.6c-3,0-6-0.1-9,0c-1.4,0-1.7-0.4-1.7-1.7c0.1-7.3,0-14.5,0-21.8c0-0.7-0.1-1.5-0.1-2.2
		c-0.1-0.1-0.1-0.2-0.1-0.3C42.6,71.9,42.7,71.9,42.7,71.9z"/>
	<path class="st1" d="M57,28.2c0.1-0.2,0.1-0.4,0.2-0.6c1.5-1.3,2.5-3,3.6-4.6c3.5-4.8,7.1-9.7,10.5-14.5c0.8-1.1,1.4-1.3,2.5-0.4
		c2.9,2.2,5.9,4.4,8.9,6.5c1,0.7,0.9,1.2,0.3,2.1c-4.7,6.4-9.4,12.9-14.1,19.4c0.1,0.3,0.3,0.6-0.3,0.6c-3.4,1-6.7,2-10.1,3.1
		C57.4,40,57,39.8,57,38.5C57.1,35.1,57,31.6,57,28.2z"/>
	<path class="st2" d="M57.1,72.3c0-0.2-0.1-0.3-0.1-0.5c0-3.8,0-7.7,0-11.8c3.8,1.1,7.5,2.2,11.1,3.3c0.4-0.2,0.6,0,0.7,0.4
		c2.1,3.6,4.8,6.7,7.2,10.1c2.2,3.1,4.4,6.2,6.7,9.2c0.9,1.2,1,1.9-0.4,2.8c-2.9,2-5.8,4.1-8.6,6.2c-1.1,0.8-1.6,0.7-2.4-0.4
		c-4.2-5.9-8.4-11.7-12.7-17.5C58.2,73.5,57.6,72.9,57.1,72.3z"/>
	<path class="st3" d="M68.6,36.5c0.1-0.2,0.2-0.4,0.3-0.6c1.7,0.2,3.2-0.6,4.7-1.1c5.9-1.9,11.8-3.7,17.6-5.8c1.9-0.7,2.5-0.2,3,1.6
		c0.9,3.1,1.9,6.2,3,9.3c0.5,1.4,0.4,2.1-1.2,2.6c-6.9,2.1-13.7,4.4-20.5,6.6c-0.8,0.3-1.5,0.6-2.2,0.9c-0.1,0.2-0.2,0.2-0.2,0
		c-3.1-1.1-6.3-2.2-9.4-3.2c-1.5-0.5-2-0.9-0.8-2.3C64.8,41.9,66.6,39.2,68.6,36.5z"/>
	<path class="st4" d="M31.2,36.4c1.7,3,4,5.7,6,8.5c0.8,1.1,0.7,1.5-0.6,1.9c-3,1-6,2-9.1,3.1c-0.6,0.1-1.2,0.1-1.8-0.1
		c-7.4-2.5-14.8-4.9-22.2-7.3c-1.3-0.4-1.5-0.9-1-2.1c1.2-3.3,2.3-6.7,3.2-10c0.4-1.4,0.8-1.8,2.3-1.3c6.9,2.3,13.9,4.6,20.9,6.8
		c0.6,0.2,1.2,0.8,1.9,0.2C31.2,35.9,31.4,36,31.2,36.4z"/>
	<path class="st3" d="M27.5,50.2c3,1,6,2.1,9,3c1.3,0.4,1.6,0.7,0.7,1.9c-1.6,2-3.1,4.2-4.7,6.4c-0.4,0.5-1,1-0.9,1.8
		C31.6,64.2,31,64,30.4,64c-5.2,1.2-10.2,3.2-15.3,4.7c-2.5,0.7-4.9,1.5-7.3,2.4c-1,0.4-1.4,0.3-1.8-0.8c-1.1-3.7-2.3-7.4-3.6-11
		c-0.4-1.1,0.1-1.4,1-1.7c7.5-2.4,15.1-4.9,22.6-7.4C26.5,50.1,27,50.2,27.5,50.2z"/>
	<path class="st4" d="M73,50.1c0.1,0,0.2,0,0.2,0c7.6,2.5,15.2,5,22.8,7.4c1.5,0.5,1.7,1,1.2,2.4c-1.2,3.4-2.3,6.8-3.3,10.2
		c-0.4,1.3-0.8,1.3-2,1c-7.7-2.5-15.3-4.9-23-7.4c-0.2-0.1-0.5-0.3-0.7-0.4c-1.2-2.9-3.4-5.2-5.3-7.7c-1.2-1.6-1-2.1,0.8-2.6
		C66.8,52.2,69.9,51.1,73,50.1z"/>
	<path class="st1" d="M30.4,64c0.4-0.2,0.9-0.5,1.3-0.7c3.3-0.9,6.5-1.9,9.8-2.8c1,0.4,0.8,1.3,0.8,2.1c0.1,3.2-0.1,6.5,0.1,9.7
		C37.5,78.8,32.8,85.4,28,92c-0.5,0.8-0.9,0.7-1.6,0.2c-3.2-2.3-6.3-4.7-9.6-6.9c-1-0.7-0.6-1.2-0.1-2c4.2-5.8,8.5-11.6,12.7-17.5
		C29.9,65.3,30.5,64.8,30.4,64z"/>
	<path class="st2" d="M31.2,36.4c-0.1-0.1-0.3-0.3-0.4-0.4c-4.7-6.5-9.4-13-14.1-19.4c-0.7-0.9-0.7-1.3,0.3-2
		c3.1-2.2,6.2-4.5,9.3-6.7c0.6-0.4,1-1,1.7,0c4.6,6.5,9.3,12.9,13.9,19.3c0.7,3.6,0.2,7.2,0.3,10.9c0,1-0.8,1.1-1.6,1.2
		C37.5,38.3,34.3,37.3,31.2,36.4z"/>
	<path class="st5" d="M40.6,39.2c1-0.5,1.3-1.3,1.3-2.4c-0.1-3.2,0-6.4,0-9.7c0.2,0.1,0.5,0.2,0.7,0.4c0.1,0.2,0.1,0.4,0.2,0.6
		c0,3.2-0.1,6.5-0.1,9.7C42.7,40.1,42.7,40.1,40.6,39.2z"/>
	<path class="st6" d="M42.3,72.2c-0.8-0.7-0.4-1.6-0.5-2.4c-0.2-3.1,0.5-6.3-0.4-9.4c1.3-0.8,1.2,0.1,1.2,1c0,3.5,0,7,0.1,10.5
		c0.1,0.1,0,0.3-0.1,0.3c0,0-0.2,0.1-0.2,0.1L42.3,72.2z"/>
</g>
</svg>
