<svg id="Capa_1" data-name="Capa 1" xmlns="http://www.w3.org/2000/svg" viewBox="0 0 100 100" width="100px" height="100px"><defs><style>.cls-1{fill:#f4dd45;}.cls-2{fill:#ecbe6b;}.cls-3{fill:#f6f1f1;}.cls-4{fill:#efe7e4;}</style></defs><title>quantum-computer</title><path class="cls-1" d="M10.13,5.07H17.3V36.63H10.13Z"/><path class="cls-2" d="M14.42,5.07H17.3V36.63H14.42Z"/><path class="cls-1" d="M28.27,5.07h7.17V36.63H28.27Z"/><path class="cls-2" d="M32.56,5.07h2.88V36.63H32.56Z"/><path class="cls-1" d="M46.42,5.07h7.17V36.63H46.42Z"/><path class="cls-2" d="M50.7,5.07h2.88V36.63H50.7Z"/><path class="cls-1" d="M64.56,5.07h7.17V36.63H64.56Z"/><path class="cls-2" d="M68.85,5.07h2.88V36.63H68.85Z"/><path class="cls-1" d="M82.7,5.07h7.17V36.63H82.7Z"/><path class="cls-2" d="M87,5.07h2.88V36.63H87Z"/><path class="cls-1" d="M19.2,37.48h7.17v26H19.2Z"/><path class="cls-2" d="M23.49,37.48h2.88v26H23.49Z"/><path class="cls-1" d="M37.35,37.48h7.17v26H37.35Z"/><path class="cls-2" d="M41.63,37.48h2.88v26H41.63Z"/><path class="cls-1" d="M55.49,37.48h7.17v26H55.49Z"/><path class="cls-2" d="M59.78,37.48h2.88v26H59.78Z"/><path class="cls-1" d="M73.63,37.48H80.8v26H73.63Z"/><path class="cls-2" d="M77.92,37.48H80.8v26H77.92Z"/><path class="cls-1" d="M20.22,65.73H33.07v32.8H20.22Z"/><path class="cls-2" d="M29.49,65.73h3.58v32.8H29.49Z"/><path class="cls-1" d="M43.58,65.73H56.42v32.8H43.58Z"/><path class="cls-2" d="M52.85,65.73h3.58v32.8H52.85Z"/><path class="cls-1" d="M66.93,65.73H79.78v32.8H66.93Z"/><path class="cls-2" d="M76.2,65.73h3.58v32.8H76.2Z"/><path class="cls-3" d="M95.89,8.68H4.11A2.64,2.64,0,0,1,1.47,6V4.11A2.64,2.64,0,0,1,4.11,1.46H95.89a2.64,2.64,0,0,1,2.64,2.64V6a2.64,2.64,0,0,1-2.64,2.64Z"/><path class="cls-4" d="M95.89,1.46H92.31A2.64,2.64,0,0,1,95,4.11V6a2.64,2.64,0,0,1-2.64,2.64h3.58A2.64,2.64,0,0,0,98.53,6V4.11a2.64,2.64,0,0,0-2.64-2.64Z"/><path class="cls-3" d="M92,40.24H8A2.64,2.64,0,0,1,5.37,37.6V35.67A2.64,2.64,0,0,1,8,33H92a2.64,2.64,0,0,1,2.64,2.64V37.6A2.64,2.64,0,0,1,92,40.24Z"/><path class="cls-4" d="M92,33H88.4A2.64,2.64,0,0,1,91,35.67V37.6a2.64,2.64,0,0,1-2.64,2.64H92a2.64,2.64,0,0,0,2.64-2.64V35.67A2.64,2.64,0,0,0,92,33Z"/><path class="cls-3" d="M86.12,67.9H13.88a2.64,2.64,0,0,1-2.64-2.64V63.32a2.64,2.64,0,0,1,2.64-2.64H86.12a2.64,2.64,0,0,1,2.64,2.64v1.93a2.64,2.64,0,0,1-2.64,2.64Z"/><path class="cls-4" d="M86.12,60.68H82.54a2.64,2.64,0,0,1,2.64,2.64v1.93a2.64,2.64,0,0,1-2.64,2.64h3.58a2.64,2.64,0,0,0,2.64-2.64V63.32a2.64,2.64,0,0,0-2.64-2.64Z"/><path d="M33.07,81.72a1.46,1.46,0,0,0-1.46,1.46V98.54a1.46,1.46,0,1,0,2.93,0V83.19A1.46,1.46,0,0,0,33.07,81.72Z"/><path d="M95.89,0H17.35a1.46,1.46,0,0,0,0,2.93H95.89a1.18,1.18,0,0,1,1.18,1.18V6a1.18,1.18,0,0,1-1.18,1.18H4.11A1.18,1.18,0,0,1,2.93,6V4.11A1.18,1.18,0,0,1,4.11,2.93h7.38a1.46,1.46,0,0,0,0-2.93H4.11A4.11,4.11,0,0,0,0,4.11V6a4.11,4.11,0,0,0,4.11,4.11H8.67V31.56H8a4.11,4.11,0,0,0-4.11,4.11V37.6A4.11,4.11,0,0,0,8,41.71h9.72V59.22H13.88a4.11,4.11,0,0,0-4.11,4.11v1.93a4.11,4.11,0,0,0,4.11,4.11h4.88V98.54a1.46,1.46,0,1,0,2.93,0V90.88h3.25a1.46,1.46,0,0,0,0-2.93H21.69V83.71H23a1.46,1.46,0,0,0,0-2.93H21.69V76.54h3.25a1.46,1.46,0,0,0,0-2.93H21.69V69.36H31.6v8a1.46,1.46,0,1,0,2.93,0v-8h7.58V98.54a1.46,1.46,0,1,0,2.93,0V90.88h3.25a1.46,1.46,0,0,0,0-2.93H45V83.71h1.29a1.46,1.46,0,0,0,0-2.93H45V76.54h3.25a1.46,1.46,0,0,0,0-2.93H45V69.36H55V98.54a1.46,1.46,0,1,0,2.93,0V69.36h7.58V98.54a1.46,1.46,0,1,0,2.93,0V90.88h3.25a1.46,1.46,0,0,0,0-2.93H68.4V83.71h1.29a1.46,1.46,0,0,0,0-2.93H68.4V76.54h3.25a1.46,1.46,0,0,0,0-2.93H68.4V69.36h9.92V98.54a1.46,1.46,0,1,0,2.93,0V69.36h4.88a4.11,4.11,0,0,0,4.11-4.11V63.32a4.11,4.11,0,0,0-4.11-4.11H82.26v-5.1a1.46,1.46,0,1,0-2.93,0v5.1H75.09V41.71h4.24v6.55a1.46,1.46,0,1,0,2.93,0V41.71H92a4.11,4.11,0,0,0,4.11-4.11V35.67A4.11,4.11,0,0,0,92,31.56h-.65V10.15h4.56A4.11,4.11,0,0,0,100,6V4.11A4.11,4.11,0,0,0,95.89,0ZM73.19,31.56V25.2h8v6.36Zm8-9.29h-8V19.44h8Zm0-5.77h-8V10.15h8Zm-11-6.36V31.56H66V10.15ZM55,31.56V25.2h8v6.36Zm0-12.13h8v2.84H55Zm8-2.93H55V10.15h8v6.36Zm-11-6.36V31.56H47.88V10.15ZM36.91,31.56V25.2h8v6.36Zm0-12.13h8v2.84h-8Zm8-2.93h-8V10.15h8ZM34,10.15V31.56H29.74V10.15ZM18.77,31.56V25.2h8v6.36Zm0-12.13h8v2.84h-8Zm8-2.93h-8V10.15h8ZM11.6,10.15h4.24V31.56H11.6Zm9.07,31.56h4.24V59.22H20.67Zm15.21,0v4.4h-8v-4.4Zm18.14,0v4.4H46v-4.4ZM72.16,51.88h-8V49h8Zm-11,7.33H57V41.71h4.24ZM46,59.22v-4.4h8v4.4Zm8-7.33H46V49h8ZM43,47.57h0v5.76h0v5.87H38.81V41.71H43ZM27.84,59.22v-4.4h8v4.4Zm8-7.33h-8V49h8ZM86.12,62.14a1.18,1.18,0,0,1,1.18,1.18v1.93a1.18,1.18,0,0,1-1.18,1.18H13.88a1.18,1.18,0,0,1-1.18-1.18V63.32a1.18,1.18,0,0,1,1.18-1.18Zm-22-2.93v-4.4h8v4.4Zm8-13.1h-8v-4.4h8Zm21-10.44V37.6A1.18,1.18,0,0,1,92,38.78H8A1.18,1.18,0,0,1,6.84,37.6V35.67A1.18,1.18,0,0,1,8,34.49H92A1.18,1.18,0,0,1,93.16,35.67ZM88.4,31.56H84.16V10.15H88.4Z"/></svg>