<?xml version="1.0" encoding="utf-8"?>
<!-- Generator: Adobe Illustrator 20.1.0, SVG Export Plug-In . SVG Version: 6.00 Build 0)  -->
<svg version="1.1" id="Слой_1" xmlns="http://www.w3.org/2000/svg" xmlns:xlink="http://www.w3.org/1999/xlink" x="0px" y="0px"
	 viewBox="0 0 44.3 51.3" style="enable-background:new 0 0 44.3 51.3;" xml:space="preserve">
<style type="text/css">
	.st0{fill:none;stroke:#FFFFFF;stroke-width:2;stroke-miterlimit:10;}
	.st1{fill:#FFFFFF;}
</style>
<polygon class="st0" points="43.3,38 22.1,50.2 1,38 1,13.5 22.1,1.2 43.3,13.5 "/>
<g>
	<path class="st1" d="M30.8,21.4c1.4,0,2.6-1.2,2.6-2.6c0-1.4-1.2-2.6-2.6-2.6c-1.4,0-2.6,1.2-2.6,2.6
		C28.2,20.2,29.4,21.4,30.8,21.4z M30.8,17.9c0.5,0,0.9,0.4,0.9,0.9c0,0.5-0.4,0.9-0.9,0.9c-0.5,0-0.9-0.4-0.9-0.9
		S30.3,17.9,30.8,17.9z"/>
	<path class="st1" d="M10.9,25.7h1.7v5.2h-1.7V25.7z"/>
	<path class="st1" d="M21.2,25.7H23v5.2h-1.7V25.7z"/>
	<path class="st1" d="M24.7,25.7h1.7v5.2h-1.7V25.7z"/>
	<path class="st1" d="M17.8,32.5h1.7v5.2h-1.7V32.5z"/>
	<path class="st1" d="M19.5,25.7h-5.2v5.2h5.2V25.7z M17.8,29.1h-1.7v-1.7h1.7V29.1z"/>
	<path class="st1" d="M16.1,32.5h-5.2v5.2h5.2V32.5z M14.4,36h-1.7v-1.7h1.7V36z"/>
	<path class="st1" d="M11.8,20.9l1.7,1.7l1.7-1.7l1.7,1.7l1.7-1.7l1.4,1.4h3.9c1.2,2.1,3.5,3.4,6,3.4c3.8,0,6.9-3.1,6.9-6.9
		s-3.1-6.9-6.9-6.9c-2.5,0-4.7,1.3-6,3.4H9.7l-2.2,2.2V20l2.6,2.6L11.8,20.9z M9.2,18.3l1.2-1.2H25c0,0,1.3-3.4,4.9-3.4
		c2.9,0,5.2,2.3,5.2,5.2s-2.3,5.2-5.2,5.2c-3.7,0-4.8-3.4-4.9-3.4h-4.3l-2.1-2.1l-1.7,1.7l-1.7-1.7l-1.7,1.7l-1.7-1.7l-1.7,1.7
		l-0.9-0.9L9.2,18.3z"/>
	<path class="st1" d="M21.2,37.7h5.2v-5.2h-5.2V37.7z M23,34.2h1.7V36H23V34.2z"/>
</g>
</svg>
