<?xml version="1.0" encoding="utf-8"?>
<!-- Generator: Adobe Illustrator 20.1.0, SVG Export Plug-In . SVG Version: 6.00 Build 0)  -->
<svg version="1.1" id="Слой_1" xmlns="http://www.w3.org/2000/svg" xmlns:xlink="http://www.w3.org/1999/xlink" x="0px" y="0px"
	 viewBox="0 0 100 100" width="100px" height="100px" style="enable-background:new 0 0 100 100;" xml:space="preserve">
<style type="text/css">
	.st0{fill:#44A4D5;}
</style>
<path class="st0" d="M97.1,0H85.4c-1.6,0-2.9,1.3-2.9,2.9v26.6h-8.8c-1.6,0-2.9,1.3-2.9,2.9c0,1.6,1.3,2.9,2.9,2.9h20.5v5.9h-8.8
	c-1.6,0-2.9,1.3-2.9,2.9v11.7c0,1.6,1.3,2.9,2.9,2.9h8.8v35.4H76.6v-5.9h8.8c1.6,0,2.9-1.3,2.9-2.9V67.6c0-1.6-1.3-2.9-2.9-2.9h-8.8
	V44.1c0-1.6-1.3-2.9-2.9-2.9s-2.9,1.3-2.9,2.9v14.6h-5.9V23.6h8.8c1.6,0,2.9-1.3,2.9-2.9V2.9c0-1.6-1.3-2.9-2.9-2.9H2.9
	C1.3,0,0,1.3,0,2.9v94.1c0,1.6,1.3,2.9,2.9,2.9h59c1.6,0,2.9-1.3,2.9-2.9V85.4c0-1.6-1.3-2.9-2.9-2.9H41.2V41.2H59v20.5
	c0,1.6,1.3,2.9,2.9,2.9h8.8v5.9H52.9V50c0-1.6-1.3-2.9-2.9-2.9s-2.9,1.3-2.9,2.9v23.4c0,1.6,1.3,2.9,2.9,2.9h23.6
	c1.6,0,2.9-1.3,2.9-2.9v-2.9h5.9v11.9h-8.8c-1.6,0-2.9,1.3-2.9,2.9v11.7c0,1.6,1.3,2.9,2.9,2.9h23.4c1.6,0,2.9-1.3,2.9-2.9V2.9
	C100,1.3,98.7,0,97.1,0z M5.9,17.8h14.6c1.6,0,2.9-1.3,2.9-2.9c0-1.6-1.3-2.9-2.9-2.9H5.9V5.9h23.4v17.8H14.6
	c-1.6,0-2.9,1.3-2.9,2.9v8.8H5.9V17.8z M47.1,17.8v-2.9c0-1.6-1.3-2.9-2.9-2.9s-2.9,1.3-2.9,2.9v11.7c0,1.6,1.3,2.9,2.9,2.9
	s2.9-1.3,2.9-2.9v-2.9H59v11.7H38.3c-1.6,0-2.9,1.3-2.9,2.9v47.1c0,1.6,1.3,2.9,2.9,2.9H59v5.9H29.3v-2.9c0-1.6-1.3-2.9-2.9-2.9
	s-2.9,1.3-2.9,2.9v2.9H5.9v-5.9h8.8c1.6,0,2.9-1.3,2.9-2.9c0-1.6-1.3-2.9-2.9-2.9H5.9V41.2h17.6v5.9h-8.8c-1.6,0-2.9,1.3-2.9,2.9
	c0,1.6,1.3,2.9,2.9,2.9h8.8v17.6h-5.9v-8.8c0-1.6-1.3-2.9-2.9-2.9s-2.9,1.3-2.9,2.9v11.7c0,1.6,1.3,2.9,2.9,2.9h8.8v3.1
	c0,1.6,1.3,2.9,2.9,2.9s2.9-1.3,2.9-2.9V38.3c0-1.6-1.3-2.9-2.9-2.9h-8.8v-5.9h14.8c1.6,0,2.9-1.3,2.9-2.9V5.9h35.4v11.9H47.1z
	 M94.1,52.9h-5.9v-5.9h5.9V52.9z M94.1,29.5h-5.9V5.9h5.9V29.5z"/>
</svg>
