<?xml version="1.0" encoding="utf-8"?>
<!-- Generator: Adobe Illustrator 20.1.0, SVG Export Plug-In . SVG Version: 6.00 Build 0)  -->
<svg version="1.1" id="Слой_1" xmlns="http://www.w3.org/2000/svg" xmlns:xlink="http://www.w3.org/1999/xlink" x="0px" y="0px"
	 viewBox="0 0 100 100" width="100px" height="100px" style="enable-background:new 0 0 100 100;" xml:space="preserve">
<style type="text/css">
	.st0{fill:#C4AED3;}
	.st1{fill:#A6CC81;}
	.st2{fill:#F5CD6E;}
	.st3{fill:#9FC1E9;}
	.st4{fill:#B295C4;}
	.st5{fill:#7FBD8B;}
	.st6{fill:#E6BC70;}
	.st7{fill:#85ADDF;}
	.st8{fill:#0E0F0F;}
</style>
<g>
	<g>
		<path class="st0" d="M31.7,72.9c1.4,0,4.3,0.9,7.4,2.1c0.3,0.1,0.5-0.1,0.5-0.4V63.5c0-1.6-1.3-2.9-3-2.9h-11
			c-0.3,0-0.5-0.3-0.4-0.5c1.1-2.9,1.9-5.6,1.9-6.9c0-3.7-3-6.7-6.7-6.7s-6.7,3-6.7,6.7c0,1.3,0.8,4,1.9,6.9
			c0.1,0.3-0.1,0.5-0.4,0.5h-11c-1.6,0-3,1.3-3,2.9v32.1c0,1.6,1.3,2.9,3,2.9h32.3c1.6,0,3-1.3,3-2.9V84.5c0-0.3-0.3-0.5-0.5-0.4
			c-3.1,1.2-6,2.1-7.4,2.1c-3.7,0-6.7-3-6.7-6.7C25,75.8,28,72.9,31.7,72.9z"/>
	</g>
	<g>
		<path class="st1" d="M47.1,13.8c-1.3,0-4,0.8-6.9,1.9c-0.3,0.1-0.5-0.1-0.5-0.4v-11c0-1.6-1.3-2.9-3-2.9H4.4c-1.6,0-3,1.3-3,2.9
			v32.1c0,1.6,1.3,2.9,3,2.9h11.2c0.3,0,0.5-0.3,0.4-0.5c-1.2-3.1-2.1-6-2.1-7.4c0-3.7,3-6.7,6.7-6.7s6.7,3,6.7,6.7
			c0,1.4-0.9,4.3-2.1,7.4c-0.1,0.3,0.1,0.5,0.4,0.5h11.2c1.6,0,3-1.3,3-2.9V25.6c0-0.3,0.3-0.5,0.5-0.4c2.9,1.1,5.6,1.9,6.9,1.9
			c3.7,0,6.7-3,6.7-6.7C53.8,16.8,50.8,13.8,47.1,13.8z"/>
	</g>
	<g>
		<path class="st2" d="M95.6,1.5H63.3c-1.6,0-3,1.3-3,2.9v11.1c0,0.3,0.3,0.5,0.5,0.4c3.1-1.2,6-2.1,7.4-2.1c3.7,0,6.7,3,6.7,6.7
			s-3,6.7-6.7,6.7c-1.4,0-4.3-0.9-7.4-2.1c-0.3-0.1-0.5,0.1-0.5,0.4v11.1c0,1.6,1.3,2.9,3,2.9h11c0.3,0,0.5,0.3,0.4,0.5
			c-1.1,2.9-1.9,5.6-1.9,6.9c0,3.7,3,6.7,6.7,6.7s6.7-3,6.7-6.7c0-1.3-0.8-4-1.9-6.9c-0.1-0.3,0.1-0.5,0.4-0.5h11c1.6,0,3-1.3,3-2.9
			V4.4C98.5,2.8,97.2,1.5,95.6,1.5L95.6,1.5z"/>
	</g>
	<g>
		<path class="st3" d="M84.4,60.5c-0.3,0-0.5,0.3-0.4,0.5c1.2,3.1,2.1,6,2.1,7.4c0,3.7-3,6.7-6.7,6.7c-3.7,0-6.7-3-6.7-6.7
			c0-1.4,0.9-4.3,2.1-7.4c0.1-0.3-0.1-0.5-0.4-0.5H63.3c-1.6,0-3,1.3-3,2.9v10.9c0,0.3-0.3,0.5-0.5,0.4c-2.9-1.1-5.6-1.9-6.9-1.9
			c-3.7,0-6.7,3-6.7,6.7c0,3.7,3,6.7,6.7,6.7c1.3,0,4-0.8,6.9-1.9c0.3-0.1,0.5,0.1,0.5,0.4v11c0,1.6,1.3,2.9,3,2.9h32.3
			c1.6,0,3-1.3,3-2.9V63.5c0-1.6-1.3-2.9-3-2.9L84.4,60.5L84.4,60.5z"/>
	</g>
	<g>
		<g>
			<path class="st4" d="M39.1,84.1c-1.5,0.6-3,1.1-4.3,1.4v5.3c0,1.6-1.3,2.9-3,2.9H1.5v1.8c0,1.6,1.3,2.9,3,2.9h32.3
				c1.6,0,3-1.3,3-2.9V84.5C39.6,84.2,39.4,84,39.1,84.1L39.1,84.1z"/>
		</g>
		<g>
			<path class="st4" d="M36.7,60.5h-1.8v13c1.3,0.4,2.7,0.9,4.3,1.4c0.3,0.1,0.5-0.1,0.5-0.4V63.5C39.6,61.8,38.3,60.5,36.7,60.5z"
				/>
		</g>
	</g>
	<g>
		<g>
			<path class="st5" d="M48.8,14c0.1,0.5,0.2,1.1,0.2,1.7c0,3.7-3,6.7-6.7,6.7c-1.3,0-4-0.8-6.9-1.9c-0.3-0.1-0.5,0.1-0.5,0.4v10.9
				c0,1.6-1.3,2.9-3,2.9h-5.3c-0.4,1.3-0.9,2.7-1.4,4.2c-0.1,0.3,0.1,0.5,0.4,0.5h11.2c1.6,0,3-1.3,3-2.9V25.6
				c0-0.3,0.3-0.5,0.5-0.4c2.9,1.1,5.6,1.9,6.9,1.9c3.7,0,6.7-3,6.7-6.7C53.8,17.4,51.7,14.8,48.8,14L48.8,14z"/>
		</g>
	</g>
	<g>
		<g>
			<path class="st6" d="M95.6,1.5h-1.8v30.3c0,1.6-1.3,2.9-3,2.9h-11c-0.3,0-0.5,0.3-0.4,0.5c1.1,2.9,1.9,5.6,1.9,6.9
				c0,3.7-3,6.7-6.7,6.7c-0.6,0-1.1-0.1-1.7-0.2c0.7,2.9,3.4,5,6.5,5c3.7,0,6.7-3,6.7-6.7c0-1.3-0.8-4-1.9-6.9
				c-0.1-0.3,0.1-0.5,0.4-0.5h11c1.6,0,3-1.3,3-2.9V4.4C98.5,2.8,97.2,1.5,95.6,1.5z"/>
		</g>
	</g>
	<g>
		<g>
			<path class="st7" d="M95.6,60.5h-1.8v30.3c0,1.6-1.3,2.9-3,2.9H60.4v1.8c0,1.6,1.3,2.9,3,2.9h32.3c1.6,0,3-1.3,3-2.9V63.5
				C98.5,61.8,97.2,60.5,95.6,60.5z"/>
		</g>
	</g>
	<g>
		<path class="st8" d="M36.7,100H4.4C2,100,0,98,0,95.6V63.5C0,61,2,59,4.4,59h9.5c-1.3-3.8-1.5-5.2-1.5-6c0-4.5,3.7-8.1,8.2-8.1
			s8.2,3.6,8.2,8.1c0,0.8-0.2,2.2-1.5,6h9.4c2.4,0,4.4,2,4.4,4.4v11.1c0,0.6-0.3,1.2-0.8,1.5c-0.5,0.3-1.1,0.4-1.7,0.2
			c-4.7-1.7-6.3-2-6.9-2c-2.9,0-5.2,2.3-5.2,5.2s2.3,5.2,5.2,5.2c0.6,0,2.2-0.3,6.9-2c0.6-0.2,1.2-0.1,1.7,0.2
			c0.5,0.3,0.8,0.9,0.8,1.5v11.1C41.1,98,39.1,100,36.7,100z M4.4,62C3.6,62,3,62.6,3,63.5v32.1c0,0.8,0.7,1.5,1.5,1.5h32.3
			c0.8,0,1.5-0.7,1.5-1.5V86c-4.1,1.5-5.7,1.6-6.5,1.6c-4.5,0-8.2-3.6-8.2-8.1c0-4.5,3.7-8.1,8.2-8.1c0.8,0,2.3,0.2,6.5,1.6v-9.6
			c0-0.8-0.7-1.5-1.5-1.5h-11c-0.6,0-1.2-0.3-1.5-0.8c-0.3-0.5-0.4-1.1-0.2-1.7c1.6-4.3,1.8-5.9,1.8-6.4c0-2.9-2.3-5.2-5.2-5.2
			s-5.2,2.3-5.2,5.2c0,0.5,0.2,2.1,1.8,6.4c0.2,0.6,0.1,1.2-0.2,1.7C16.6,61.7,16,62,15.4,62L4.4,62L4.4,62z"/>
	</g>
	<g>
		<path class="st8" d="M36.7,41H25.5c-0.6,0-1.2-0.3-1.5-0.8c-0.3-0.5-0.4-1.1-0.2-1.7c1.7-4.6,2-6.3,2-6.9c0-2.9-2.3-5.2-5.2-5.2
			s-5.2,2.3-5.2,5.2c0,0.6,0.3,2.2,2,6.9c0.2,0.6,0.1,1.2-0.2,1.7c-0.3,0.5-0.9,0.8-1.5,0.8H4.4C2,41,0,39,0,36.5V4.4C0,2,2,0,4.4,0
			h7.1c0.8,0,1.5,0.7,1.5,1.5s-0.7,1.5-1.5,1.5H4.4C3.6,2.9,3,3.6,3,4.4v32.1C3,37.4,3.6,38,4.4,38h9.6c-1.5-4.1-1.6-5.6-1.6-6.4
			c0-4.5,3.7-8.1,8.2-8.1s8.2,3.6,8.2,8.1c0,0.8-0.2,2.3-1.6,6.4h9.6c0.8,0,1.5-0.7,1.5-1.5V25.6c0-0.6,0.3-1.2,0.8-1.5
			c0.5-0.3,1.1-0.4,1.7-0.2c4.3,1.6,5.9,1.8,6.4,1.8c2.9,0,5.2-2.3,5.2-5.2s-2.3-5.2-5.2-5.2c-0.5,0-2.1,0.2-6.4,1.8
			c-0.6,0.2-1.2,0.1-1.7-0.2c-0.5-0.3-0.8-0.9-0.8-1.5v-11c0-0.8-0.7-1.5-1.5-1.5H18.5c-0.8,0-1.5-0.7-1.5-1.5S17.7,0,18.5,0h18.2
			c2.4,0,4.4,2,4.4,4.4v9.4c3.8-1.3,5.2-1.5,6-1.5c4.5,0,8.2,3.6,8.2,8.1s-3.7,8.1-8.2,8.1c-0.8,0-2.2-0.2-6-1.5v9.4
			C41.1,39,39.1,41,36.7,41L36.7,41z"/>
	</g>
	<g>
		<path class="st8" d="M79.4,55.1c-4.5,0-8.2-3.6-8.2-8.1c0-0.8,0.2-2.2,1.5-6h-9.4c-2.4,0-4.4-2-4.4-4.4V25.4
			c0-0.6,0.3-1.2,0.8-1.5c0.5-0.3,1.1-0.4,1.7-0.2c4.7,1.7,6.3,2,6.9,2c2.9,0,5.2-2.3,5.2-5.2s-2.3-5.2-5.2-5.2
			c-0.6,0-2.2,0.3-6.9,2c-0.6,0.2-1.2,0.1-1.7-0.2c-0.5-0.3-0.8-0.9-0.8-1.5V4.4c0-2.4,2-4.4,4.4-4.4h32.3C98,0,100,2,100,4.4v21.9
			c0,0.8-0.7,1.5-1.5,1.5c-0.8,0-1.5-0.7-1.5-1.5V4.4c0-0.8-0.7-1.5-1.5-1.5H63.3c-0.8,0-1.5,0.7-1.5,1.5V14
			c4.1-1.5,5.7-1.6,6.5-1.6c4.5,0,8.2,3.6,8.2,8.1s-3.7,8.1-8.2,8.1c-0.8,0-2.3-0.2-6.5-1.6v9.6c0,0.8,0.7,1.5,1.5,1.5h11
			c0.6,0,1.2,0.3,1.5,0.8c0.3,0.5,0.4,1.1,0.2,1.7c-1.6,4.3-1.8,5.9-1.8,6.4c0,2.9,2.3,5.2,5.2,5.2c2.9,0,5.2-2.3,5.2-5.2
			c0-0.5-0.2-2.1-1.8-6.4c-0.2-0.6-0.1-1.2,0.2-1.7c0.3-0.5,0.9-0.8,1.5-0.8h11c0.8,0,1.5-0.7,1.5-1.5v-3.2c0-0.8,0.7-1.5,1.5-1.5
			c0.8,0,1.5,0.7,1.5,1.5v3.2c0,2.4-2,4.4-4.4,4.4h-9.5c1.3,3.8,1.5,5.2,1.5,6C87.6,51.4,83.9,55.1,79.4,55.1L79.4,55.1z"/>
	</g>
	<g>
		<path class="st8" d="M95.6,100H86c-0.8,0-1.5-0.7-1.5-1.5s0.7-1.5,1.5-1.5h9.5c0.8,0,1.5-0.7,1.5-1.5V63.5c0-0.8-0.7-1.5-1.5-1.5
			H86c1.5,4.1,1.6,5.6,1.6,6.4c0,4.5-3.7,8.1-8.2,8.1c-4.5,0-8.2-3.6-8.2-8.1c0-0.8,0.2-2.3,1.6-6.4h-9.6c-0.8,0-1.5,0.7-1.5,1.5
			v10.9c0,0.6-0.3,1.2-0.8,1.5c-0.5,0.3-1.1,0.4-1.7,0.2c-4.3-1.6-5.9-1.8-6.4-1.8c-2.9,0-5.2,2.3-5.2,5.2c0,2.9,2.3,5.2,5.2,5.2
			c0.5,0,2.1-0.2,6.4-1.8c0.6-0.2,1.2-0.1,1.7,0.2c0.5,0.3,0.8,0.9,0.8,1.5v11c0,0.8,0.7,1.5,1.5,1.5h15.4c0.8,0,1.5,0.7,1.5,1.5
			s-0.7,1.5-1.5,1.5H63.3c-2.4,0-4.4-2-4.4-4.4v-9.4c-3.8,1.3-5.2,1.5-6,1.5c-4.5,0-8.2-3.6-8.2-8.1c0-4.5,3.7-8.1,8.2-8.1
			c0.8,0,2.2,0.2,6,1.5v-9.4c0-2.4,2-4.4,4.4-4.4h11.2c0.6,0,1.2,0.3,1.5,0.8c0.3,0.5,0.4,1.1,0.2,1.7c-1.7,4.6-2,6.3-2,6.9
			c0,2.9,2.3,5.2,5.2,5.2c2.9,0,5.2-2.3,5.2-5.2c0-0.6-0.3-2.2-2-6.9c-0.2-0.6-0.1-1.2,0.2-1.7c0.3-0.5,0.9-0.8,1.5-0.8h11.2
			c2.4,0,4.4,2,4.4,4.4v32.1C100,98,98,100,95.6,100L95.6,100z"/>
	</g>
</g>
</svg>
